<svg width="42" height="42" viewBox="0 0 42 42" fill="none" xmlns="http://www.w3.org/2000/svg">
<path d="M38.1875 21.4219C38.1953 21.1407 38.1953 20.8594 38.1875 20.5782L41.1015 16.9375C41.2543 16.7464 41.3601 16.522 41.4103 16.2825C41.4605 16.043 41.4538 15.795 41.3906 15.5586C40.912 13.7632 40.1975 12.0392 39.2656 10.4317C39.1435 10.2214 38.9739 10.0424 38.7705 9.90919C38.567 9.77593 38.3353 9.69201 38.0937 9.66409L33.4609 9.14847C33.2682 8.94534 33.0729 8.75003 32.875 8.56253L32.3281 3.918C32.3 3.67622 32.2157 3.44437 32.0821 3.24091C31.9485 3.03745 31.7692 2.86802 31.5586 2.74612C29.9511 1.81497 28.2271 1.10169 26.4316 0.625028C26.1952 0.561864 25.9472 0.555115 25.7077 0.605323C25.4682 0.655532 25.2438 0.761294 25.0527 0.914091L21.4218 3.81253H20.5781L16.9375 0.904325C16.7463 0.751529 16.5219 0.645766 16.2824 0.595558C16.0429 0.545349 15.795 0.552099 15.5586 0.615262C13.7631 1.09383 12.0391 1.80839 10.4316 2.74026C10.2213 2.86238 10.0424 3.03191 9.90913 3.23536C9.77587 3.4388 9.69195 3.67054 9.66403 3.91214L9.1484 8.55276C8.94528 8.74677 8.74997 8.94208 8.56247 9.1387L3.91794 9.6719C3.67616 9.70003 3.4443 9.78425 3.24085 9.91786C3.03739 10.0515 2.86796 10.2308 2.74606 10.4414C1.8151 12.0492 1.10121 13.7732 0.623014 15.5684C0.560117 15.805 0.553684 16.053 0.604233 16.2925C0.654782 16.532 0.760899 16.7563 0.91403 16.9473L3.81247 20.5782V21.4219L0.904264 25.0625C0.751468 25.2537 0.645705 25.478 0.595497 25.7175C0.545288 25.9571 0.552038 26.205 0.615201 26.4414C1.09377 28.2368 1.80833 29.9609 2.7402 31.5684C2.86232 31.7787 3.03185 31.9576 3.2353 32.0909C3.43874 32.2241 3.67048 32.308 3.91208 32.336L8.54489 32.8516C8.7389 33.0547 8.93421 33.25 9.13083 33.4375L9.67184 38.0821C9.69997 38.3238 9.78419 38.5557 9.9178 38.7591C10.0514 38.9626 10.2307 39.132 10.4414 39.2539C12.0491 40.1849 13.7731 40.8988 15.5683 41.377C15.8049 41.4399 16.0529 41.4463 16.2925 41.3958C16.532 41.3452 16.7563 41.2391 16.9472 41.086L20.5781 38.1875C20.8593 38.1953 21.1406 38.1953 21.4218 38.1875L25.0625 41.1016C25.2536 41.2544 25.478 41.3601 25.7175 41.4104C25.957 41.4606 26.2049 41.4538 26.4414 41.3906C28.2371 40.9129 29.9612 40.1983 31.5683 39.2657C31.7786 39.1435 31.9575 38.974 32.0908 38.7706C32.2241 38.5671 32.308 38.3354 32.3359 38.0938L32.8515 33.461C33.0547 33.2683 33.25 33.0729 33.4375 32.875L38.082 32.3282C38.3238 32.3 38.5556 32.2158 38.7591 32.0822C38.9625 31.9486 39.132 31.7693 39.2539 31.5586C40.1848 29.9509 40.8987 28.2269 41.3769 26.4317C41.4398 26.1951 41.4462 25.9471 41.3957 25.7075C41.3452 25.468 41.239 25.2437 41.0859 25.0528L38.1875 21.4219ZM21 28.8125C19.4548 28.8125 17.9443 28.3543 16.6596 27.4959C15.3748 26.6374 14.3735 25.4173 13.7822 23.9897C13.1908 22.5622 13.0361 20.9914 13.3376 19.4759C13.639 17.9604 14.3831 16.5684 15.4757 15.4758C16.5683 14.3832 17.9603 13.6391 19.4758 13.3376C20.9913 13.0362 22.5621 13.1909 23.9897 13.7822C25.4172 14.3735 26.6374 15.3749 27.4958 16.6596C28.3543 17.9444 28.8125 19.4549 28.8125 21C28.8125 23.072 27.9894 25.0592 26.5242 26.5243C25.0591 27.9894 23.072 28.8125 21 28.8125Z" fill="white"/>
</svg>
